<svg xmlns="http://www.w3.org/2000/svg" id="canvas" viewBox="176.410 262.087 1138.809 161.978"><path d="M 180.29,352.80 C 180.85 352.31, 181.29 351.58, 182.20 349.98 C 183.11 348.38, 183.75 347.34, 184.86 344.78 C 185.97 342.21, 186.53 340.40, 187.75 337.17 C 188.97 333.94, 189.68 332.02, 190.96 328.61 C 192.23 325.21, 192.93 323.28, 194.11 320.14 C 195.29 317.00, 196.04 315.36, 196.84 312.90 C 197.64 310.44, 197.93 309.12, 198.11 307.83 C 198.28 306.54, 198.07 306.05, 197.70 306.47 C 197.34 306.88, 196.79 307.52, 196.29 309.92 C 195.79 312.31, 195.64 314.20, 195.20 318.44 C 194.75 322.67, 194.48 325.57, 194.07 331.09 C 193.66 336.61, 193.38 340.03, 193.13 346.04 C 192.88 352.05, 192.76 355.49, 192.81 361.14 C 192.87 366.79, 192.96 369.74, 193.42 374.31 C 193.89 378.87, 194.11 381.01, 195.13 383.98 C 196.15 386.95, 196.92 388.06, 198.52 389.15 C 200.11 390.25, 201.18 390.37, 203.09 389.46 C 205.01 388.55, 206.13 387.48, 208.08 384.61 C 210.03 381.74, 210.95 379.57, 212.86 375.12 C 214.76 370.66, 215.75 367.79, 217.59 362.32 C 219.44 356.85, 220.42 353.51, 222.10 347.77 C 223.78 342.03, 224.62 338.78, 226.01 333.63 C 227.39 328.49, 228.16 325.76, 229.03 322.06 C 229.89 318.37, 230.19 316.71, 230.33 315.17 C 230.47 313.64, 230.11 313.44, 229.74 314.40 C 229.37 315.37, 228.88 316.70, 228.47 320.00 C 228.07 323.30, 227.97 325.92, 227.73 330.90 C 227.48 335.89, 227.33 339.20, 227.25 344.92 C 227.16 350.65, 227.10 353.99, 227.28 359.53 C 227.46 365.07, 227.60 368.01, 228.15 372.61 C 228.71 377.21, 228.98 379.44, 230.06 382.53 C 231.14 385.62, 231.91 386.83, 233.54 388.07 C 235.17 389.31, 236.24 389.39, 238.21 388.73 C 240.18 388.07, 241.38 387.13, 243.39 384.78 C 245.41 382.42, 246.37 380.47, 248.28 376.96 C 250.19 373.46, 251.17 371.07, 252.95 367.24 C 254.72 363.41, 255.65 361.13, 257.15 357.82 C 258.65 354.50, 259.48 352.89, 260.46 350.67 C 261.43 348.45, 261.69 347.59, 262.02 346.71 C 262.34 345.83, 262.22 345.83, 262.10 346.26 C 261.98 346.70, 261.64 347.38, 261.41 348.88 C 261.18 350.37, 261.00 351.56, 260.97 353.76 C 260.93 355.96, 261.02 357.42, 261.24 359.88 C 261.45 362.33, 261.57 363.78, 262.05 366.02 C 262.52 368.26, 262.80 369.48, 263.62 371.06 C 264.44 372.64, 264.99 373.35, 266.15 373.93 C 267.31 374.51, 268.07 374.60, 269.43 373.95 C 270.78 373.31, 271.60 372.64, 272.92 370.72 C 274.24 368.81, 274.88 367.36, 276.03 364.39 C 277.17 361.43, 277.68 359.44, 278.64 355.89 C 279.60 352.33, 280.08 350.20, 280.82 346.61 C 281.56 343.01, 281.93 341.05, 282.35 337.92 C 282.77 334.79, 282.91 333.25, 282.90 330.96 C 282.90 328.66, 282.76 327.67, 282.31 326.44 C 281.86 325.22, 281.42 324.83, 280.64 324.82 C 279.85 324.82, 279.23 325.10, 278.38 326.42 C 277.54 327.74, 276.98 328.79, 276.41 331.43 C 275.84 334.07, 275.77 335.91, 275.53 339.63 C 275.29 343.34, 275.18 345.73, 275.20 350.00 C 275.21 354.27, 275.27 356.82, 275.61 360.96 C 275.96 365.10, 276.18 367.35, 276.91 370.70 C 277.64 374.05, 278.08 375.68, 279.27 377.71 C 280.46 379.75, 281.29 380.43, 282.86 380.88 C 284.42 381.34, 285.37 381.09, 287.08 379.99 C 288.80 378.88, 289.80 377.79, 291.42 375.34 C 293.04 372.90, 293.76 370.96, 295.20 367.75 C 296.64 364.54, 297.40 362.45, 298.61 359.30 C 299.82 356.15, 300.53 354.30, 301.26 352.01 C 302.00 349.72, 302.10 348.62, 302.28 347.86 C 302.46 347.11, 302.27 347.27, 302.17 348.25 C 302.08 349.22, 301.80 350.40, 301.81 352.75 C 301.82 355.10, 301.87 356.99, 302.21 359.99 C 302.54 363.00, 302.77 364.94, 303.48 367.77 C 304.19 370.60, 304.64 372.15, 305.76 374.15 C 306.88 376.16, 307.57 377.01, 309.07 377.80 C 310.58 378.59, 311.52 378.69, 313.29 378.11 C 315.05 377.54, 316.11 376.81, 317.90 374.92 C 319.69 373.04, 320.58 371.49, 322.23 368.67 C 323.87 365.86, 324.72 363.89, 326.14 360.85 C 327.57 357.81, 328.44 355.85, 329.37 353.47 C 330.30 351.08, 330.48 349.80, 330.80 348.92 C 331.13 348.03, 331.00 348.10, 331.00 349.04 C 331.01 349.98, 330.74 351.21, 330.81 353.62 C 330.89 356.04, 330.98 358.07, 331.38 361.12 C 331.78 364.16, 332.03 366.15, 332.82 368.86 C 333.60 371.56, 334.10 372.93, 335.28 374.64 C 336.46 376.34, 337.19 376.97, 338.71 377.38 C 340.23 377.79, 341.20 377.65, 342.88 376.67 C 344.57 375.70, 345.70 374.45, 347.15 372.51 C 348.60 370.57, 349.27 369.02, 350.13 366.97 C 350.98 364.93, 351.34 363.30, 351.41 362.28 C 351.48 361.25, 351.18 361.14, 350.46 361.84 C 349.74 362.54, 348.95 363.97, 347.80 365.77 C 346.66 367.56, 345.97 368.97, 344.74 370.81 C 343.52 372.65, 342.80 373.93, 341.67 374.97 C 340.54 376.00, 340.03 376.25, 339.09 375.99 C 338.16 375.72, 337.73 375.19, 337.01 373.63 C 336.29 372.07, 336.01 370.79, 335.50 368.20 C 334.99 365.62, 334.84 363.69, 334.46 360.72 C 334.08 357.74, 334.07 355.73, 333.61 353.31 C 333.14 350.89, 332.87 349.64, 332.13 348.61 C 331.39 347.59, 330.93 347.42, 329.91 348.18 C 328.88 348.94, 328.22 350.08, 327.02 352.40 C 325.82 354.73, 325.31 356.81, 323.91 359.80 C 322.50 362.80, 321.59 364.68, 320.00 367.36 C 318.42 370.05, 317.46 371.41, 315.98 373.23 C 314.50 375.04, 313.83 375.80, 312.60 376.44 C 311.38 377.08, 310.84 377.08, 309.87 376.43 C 308.90 375.78, 308.47 375.05, 307.73 373.20 C 307.00 371.35, 306.67 369.90, 306.19 367.19 C 305.70 364.48, 305.61 362.59, 305.30 359.66 C 304.99 356.72, 305.02 354.86, 304.64 352.52 C 304.26 350.17, 304.02 348.97, 303.39 347.92 C 302.76 346.88, 302.37 346.63, 301.49 347.27 C 300.62 347.92, 300.05 348.91, 299.03 351.15 C 298.01 353.38, 297.60 355.33, 296.39 358.45 C 295.19 361.56, 294.45 363.65, 293.00 366.74 C 291.54 369.83, 290.55 371.54, 289.13 373.90 C 287.72 376.25, 287.10 377.35, 285.93 378.50 C 284.75 379.64, 284.24 379.95, 283.24 379.62 C 282.24 379.29, 281.80 378.71, 280.92 376.84 C 280.04 374.97, 279.55 373.48, 278.85 370.27 C 278.16 367.07, 277.78 364.85, 277.43 360.80 C 277.08 356.75, 277.03 354.21, 277.11 350.01 C 277.18 345.82, 277.40 343.44, 277.82 339.84 C 278.25 336.23, 278.77 334.53, 279.25 332.00 C 279.73 329.48, 279.94 328.52, 280.23 327.22 C 280.52 325.91, 280.58 325.60, 280.70 325.50 C 280.83 325.40, 280.85 325.66, 280.85 326.73 C 280.86 327.81, 280.88 328.71, 280.74 330.89 C 280.60 333.07, 280.55 334.58, 280.16 337.64 C 279.78 340.69, 279.52 342.66, 278.79 346.19 C 278.06 349.71, 277.56 351.83, 276.52 355.28 C 275.47 358.72, 274.72 360.60, 273.57 363.42 C 272.41 366.23, 271.74 367.54, 270.74 369.36 C 269.73 371.17, 269.30 371.83, 268.53 372.49 C 267.76 373.16, 267.47 373.13, 266.89 372.68 C 266.30 372.23, 266.05 371.65, 265.60 370.23 C 265.15 368.80, 264.92 367.68, 264.63 365.57 C 264.35 363.46, 264.26 362.05, 264.17 359.69 C 264.07 357.32, 264.21 355.90, 264.14 353.73 C 264.08 351.57, 264.09 350.40, 263.83 348.85 C 263.57 347.29, 263.37 346.52, 262.82 345.95 C 262.27 345.39, 261.94 345.27, 261.08 346.03 C 260.22 346.79, 259.67 347.54, 258.52 349.74 C 257.37 351.93, 256.79 353.67, 255.33 357.01 C 253.87 360.35, 252.99 362.65, 251.21 366.43 C 249.44 370.22, 248.38 372.57, 246.45 375.94 C 244.52 379.31, 243.35 381.02, 241.58 383.29 C 239.81 385.56, 239.04 386.54, 237.61 387.27 C 236.18 388.01, 235.60 388.05, 234.42 386.99 C 233.24 385.93, 232.70 384.88, 231.73 381.96 C 230.77 379.05, 230.22 376.92, 229.60 372.43 C 228.98 367.93, 228.81 364.98, 228.63 359.49 C 228.45 353.99, 228.51 350.65, 228.69 344.96 C 228.88 339.26, 229.16 335.97, 229.56 331.02 C 229.95 326.07, 230.46 323.51, 230.66 320.20 C 230.86 316.88, 230.87 315.50, 230.58 314.44 C 230.29 313.38, 229.86 313.43, 229.21 314.88 C 228.57 316.32, 228.28 317.99, 227.37 321.67 C 226.47 325.35, 226.00 328.14, 224.70 333.29 C 223.40 338.44, 222.56 341.70, 220.87 347.41 C 219.19 353.13, 218.19 356.46, 216.28 361.87 C 214.36 367.27, 213.29 370.11, 211.30 374.43 C 209.32 378.74, 208.13 380.71, 206.33 383.44 C 204.54 386.18, 203.74 387.15, 202.33 388.08 C 200.92 389.02, 200.40 389.04, 199.30 388.11 C 198.20 387.18, 197.71 386.21, 196.82 383.42 C 195.93 380.63, 195.39 378.60, 194.85 374.15 C 194.31 369.69, 194.18 366.73, 194.10 361.12 C 194.02 355.51, 194.14 352.08, 194.44 346.10 C 194.74 340.12, 195.04 336.71, 195.60 331.22 C 196.15 325.74, 196.63 322.88, 197.23 318.69 C 197.83 314.50, 198.40 312.70, 198.61 310.26 C 198.82 307.81, 198.65 307.05, 198.28 306.46 C 197.90 305.87, 197.50 306.19, 196.76 307.32 C 196.01 308.45, 195.50 309.68, 194.57 312.10 C 193.64 314.51, 193.21 316.25, 192.09 319.40 C 190.97 322.56, 190.29 324.49, 188.98 327.86 C 187.67 331.24, 186.89 333.12, 185.55 336.29 C 184.20 339.45, 183.33 341.11, 182.27 343.68 C 181.21 346.24, 180.82 347.37, 180.25 349.11 C 179.67 350.86, 179.40 351.66, 179.41 352.40 C 179.42 353.14, 179.73 353.28, 180.29 352.80" style="stroke: black; fill: black;"/><path d="M 338.37,328.04 C 338.03 327.90, 337.80 327.95, 337.79 328.05 C 337.78 328.15, 338.01 328.38, 338.31 328.53 C 338.60 328.67, 338.96 328.69, 339.27 328.79 C 339.58 328.89, 339.82 329.03, 339.86 329.01 C 339.90 329.00, 339.77 328.93, 339.47 328.73 C 339.17 328.54, 338.70 328.17, 338.37 328.04" style="stroke: black; fill: black;"/><path d="M 372.35,351.61 C 372.21 351.22, 372.00 350.92, 371.29 350.51 C 370.58 350.09, 370.06 349.71, 368.79 349.53 C 367.51 349.34, 366.59 349.17, 364.92 349.57 C 363.25 349.97, 362.21 350.28, 360.44 351.53 C 358.67 352.78, 357.63 353.69, 356.06 355.82 C 354.50 357.96, 353.65 359.45, 352.61 362.21 C 351.58 364.97, 351.12 366.76, 350.88 369.60 C 350.65 372.45, 350.75 374.17, 351.44 376.44 C 352.14 378.71, 352.83 379.87, 354.36 380.96 C 355.88 382.04, 357.02 382.35, 359.08 381.85 C 361.15 381.34, 362.49 380.66, 364.68 378.44 C 366.87 376.22, 367.97 374.49, 370.04 370.75 C 372.11 367.02, 373.18 364.62, 375.03 359.77 C 376.87 354.91, 377.79 351.95, 379.29 346.48 C 380.78 341.01, 381.48 337.80, 382.52 332.42 C 383.55 327.04, 383.93 324.10, 384.45 319.57 C 384.97 315.05, 385.20 312.85, 385.11 309.77 C 385.01 306.70, 384.68 305.45, 383.98 304.20 C 383.27 302.95, 382.60 302.79, 381.60 303.51 C 380.60 304.24, 379.77 305.20, 378.98 307.83 C 378.20 310.47, 378.04 312.52, 377.66 316.68 C 377.29 320.84, 377.16 323.56, 377.11 328.62 C 377.06 333.67, 377.08 336.74, 377.42 341.96 C 377.75 347.17, 378.00 350.06, 378.79 354.68 C 379.58 359.30, 380.04 361.59, 381.35 365.06 C 382.65 368.52, 383.43 370.06, 385.30 372.00 C 387.17 373.93, 388.38 374.45, 390.69 374.73 C 393.00 375.00, 394.39 374.65, 396.85 373.37 C 399.32 372.10, 400.64 370.81, 403.00 368.34 C 405.37 365.86, 406.58 364.04, 408.67 360.98 C 410.76 357.92, 411.86 356.01, 413.46 353.05 C 415.05 350.08, 415.85 348.49, 416.66 346.15 C 417.48 343.82, 417.62 342.75, 417.55 341.39 C 417.47 340.03, 417.09 339.59, 416.28 339.35 C 415.48 339.11, 414.68 339.31, 413.51 340.18 C 412.34 341.05, 411.54 341.90, 410.42 343.69 C 409.31 345.47, 408.73 346.78, 407.94 349.11 C 407.15 351.43, 406.75 352.92, 406.46 355.30 C 406.17 357.68, 406.11 359.06, 406.49 361.02 C 406.88 362.97, 407.30 363.95, 408.39 365.07 C 409.48 366.18, 410.33 366.57, 411.94 366.58 C 413.56 366.59, 414.62 366.26, 416.45 365.12 C 418.28 363.97, 419.38 362.95, 421.09 360.86 C 422.81 358.78, 423.74 357.28, 425.03 354.69 C 426.33 352.11, 426.94 350.48, 427.57 347.95 C 428.20 345.43, 428.36 344.02, 428.16 342.06 C 427.97 340.11, 427.57 339.18, 426.59 338.17 C 425.61 337.16, 424.74 336.91, 423.26 337.02 C 421.77 337.12, 420.72 337.55, 419.16 338.71 C 417.60 339.86, 416.68 340.87, 415.47 342.80 C 414.26 344.73, 413.68 346.05, 413.12 348.35 C 412.56 350.65, 412.40 352.05, 412.66 354.30 C 412.92 356.56, 413.28 357.80, 414.40 359.61 C 415.53 361.42, 416.40 362.30, 418.27 363.36 C 420.14 364.43, 421.38 364.77, 423.75 364.93 C 426.12 365.09, 427.54 364.87, 430.13 364.17 C 432.73 363.47, 434.18 362.81, 436.71 361.44 C 439.23 360.07, 440.58 359.10, 442.77 357.34 C 444.95 355.58, 446.09 354.38, 447.61 352.64 C 449.14 350.90, 449.80 349.83, 450.39 348.64 C 450.98 347.45, 450.88 346.93, 450.56 346.69 C 450.24 346.44, 449.59 346.59, 448.77 347.41 C 447.96 348.23, 447.19 349.10, 446.48 350.79 C 445.78 352.48, 445.41 353.81, 445.25 355.85 C 445.09 357.89, 445.14 359.15, 445.69 360.99 C 446.23 362.84, 446.70 363.82, 447.98 365.07 C 449.25 366.32, 450.18 366.83, 452.07 367.24 C 453.97 367.66, 455.18 367.63, 457.44 367.15 C 459.71 366.66, 461.03 366.10, 463.38 364.80 C 465.73 363.50, 467.03 362.53, 469.19 360.64 C 471.35 358.76, 472.56 357.41, 474.17 355.37 C 475.79 353.34, 476.56 352.08, 477.25 350.47 C 477.93 348.86, 477.93 348.00, 477.59 347.34 C 477.25 346.67, 476.61 346.60, 475.56 347.15 C 474.50 347.70, 473.54 348.44, 472.30 350.10 C 471.06 351.76, 470.25 353.12, 469.35 355.44 C 468.45 357.76, 468.02 359.31, 467.80 361.71 C 467.58 364.11, 467.60 365.48, 468.24 367.45 C 468.88 369.43, 469.47 370.41, 471.00 371.58 C 472.53 372.74, 473.64 373.15, 475.89 373.27 C 478.15 373.39, 479.61 373.17, 482.26 372.17 C 484.91 371.17, 486.44 370.20, 489.14 368.27 C 491.83 366.35, 493.30 365.01, 495.76 362.54 C 498.21 360.06, 499.48 358.54, 501.41 355.88 C 503.34 353.21, 504.29 351.72, 505.42 349.21 C 506.54 346.71, 506.87 345.38, 507.02 343.35 C 507.17 341.33, 506.93 340.38, 506.15 339.10 C 505.37 337.82, 504.62 337.32, 503.12 336.96 C 501.62 336.61, 500.52 336.70, 498.65 337.32 C 496.79 337.93, 495.62 338.59, 493.79 340.02 C 491.97 341.45, 490.96 342.50, 489.54 344.47 C 488.12 346.43, 487.40 347.69, 486.70 349.87 C 486.00 352.05, 485.79 353.33, 486.05 355.37 C 486.30 357.40, 486.72 358.50, 487.97 360.03 C 489.21 361.55, 490.19 362.25, 492.27 362.99 C 494.35 363.72, 495.74 363.87, 498.37 363.68 C 500.99 363.50, 502.57 363.11, 505.38 362.06 C 508.18 361.00, 509.73 360.13, 512.40 358.41 C 515.06 356.69, 516.47 355.57, 518.69 353.45 C 520.90 351.33, 522.00 350.07, 523.47 347.80 C 524.94 345.54, 525.53 344.25, 526.04 342.13 C 526.56 340.00, 526.57 338.77, 526.04 337.17 C 525.52 335.58, 524.10 334.66, 523.42 334.17 C 522.74 333.68, 522.47 334.03, 522.66 334.72 C 522.85 335.42, 524.09 336.26, 524.36 337.63 C 524.63 338.99, 524.59 339.79, 524.02 341.56 C 523.45 343.33, 522.90 344.46, 521.50 346.49 C 520.11 348.52, 519.12 349.74, 517.04 351.72 C 514.96 353.70, 513.62 354.81, 511.10 356.39 C 508.59 357.97, 507.07 358.68, 504.48 359.63 C 501.89 360.59, 500.45 360.91, 498.15 361.15 C 495.84 361.39, 494.68 361.32, 492.96 360.84 C 491.24 360.36, 490.49 359.87, 489.54 358.73 C 488.58 357.59, 488.29 356.77, 488.18 355.15 C 488.08 353.54, 488.30 352.49, 489.00 350.67 C 489.70 348.85, 490.38 347.76, 491.69 346.06 C 492.99 344.36, 493.95 343.47, 495.52 342.19 C 497.10 340.90, 498.09 340.31, 499.56 339.62 C 501.02 338.93, 501.79 338.68, 502.84 338.73 C 503.88 338.78, 504.35 338.99, 504.80 339.87 C 505.25 340.74, 505.38 341.45, 505.08 343.12 C 504.78 344.79, 504.40 345.95, 503.31 348.24 C 502.22 350.53, 501.44 352.04, 499.62 354.58 C 497.79 357.13, 496.57 358.64, 494.20 360.98 C 491.84 363.33, 490.35 364.56, 487.77 366.31 C 485.19 368.06, 483.69 368.79, 481.32 369.73 C 478.95 370.68, 477.76 370.99, 475.92 371.06 C 474.09 371.12, 473.27 370.89, 472.15 370.05 C 471.02 369.22, 470.64 368.48, 470.29 366.88 C 469.95 365.29, 470.02 364.13, 470.42 362.08 C 470.82 360.02, 471.41 358.71, 472.29 356.63 C 473.17 354.55, 473.93 353.36, 474.81 351.70 C 475.68 350.03, 476.22 349.16, 476.65 348.30 C 477.08 347.44, 477.19 347.18, 476.94 347.40 C 476.69 347.63, 476.38 348.16, 475.41 349.41 C 474.45 350.67, 473.72 351.83, 472.12 353.66 C 470.51 355.50, 469.40 356.82, 467.38 358.58 C 465.37 360.34, 464.17 361.25, 462.06 362.48 C 459.95 363.70, 458.77 364.19, 456.86 364.72 C 454.94 365.24, 453.96 365.32, 452.47 365.10 C 450.99 364.88, 450.32 364.55, 449.43 363.62 C 448.54 362.69, 448.26 361.93, 448.02 360.44 C 447.78 358.96, 447.95 357.92, 448.24 356.20 C 448.52 354.48, 449.01 353.41, 449.45 351.83 C 449.89 350.26, 450.25 349.36, 450.45 348.34 C 450.66 347.31, 450.78 346.86, 450.48 346.71 C 450.19 346.56, 449.92 346.73, 448.97 347.57 C 448.03 348.41, 447.34 349.36, 445.77 350.91 C 444.21 352.45, 443.19 353.66, 441.13 355.30 C 439.06 356.95, 437.79 357.85, 435.45 359.13 C 433.12 360.42, 431.76 361.02, 429.44 361.71 C 427.12 362.40, 425.89 362.62, 423.87 362.57 C 421.85 362.52, 420.85 362.27, 419.33 361.45 C 417.82 360.63, 417.14 359.95, 416.29 358.47 C 415.43 357.00, 415.17 355.98, 415.04 354.08 C 414.92 352.19, 415.10 350.98, 415.66 349.02 C 416.22 347.05, 416.81 345.94, 417.84 344.27 C 418.86 342.59, 419.64 341.75, 420.78 340.65 C 421.93 339.55, 422.61 339.06, 423.55 338.76 C 424.49 338.46, 424.96 338.48, 425.47 339.15 C 425.98 339.83, 426.16 340.51, 426.09 342.13 C 426.01 343.76, 425.81 345.01, 425.10 347.26 C 424.39 349.52, 423.77 351.04, 422.52 353.40 C 421.28 355.77, 420.36 357.15, 418.87 359.08 C 417.37 361.02, 416.44 361.96, 415.03 363.10 C 413.63 364.24, 412.91 364.62, 411.84 364.78 C 410.77 364.95, 410.29 364.74, 409.67 363.93 C 409.05 363.11, 408.84 362.35, 408.73 360.71 C 408.62 359.06, 408.72 357.83, 409.12 355.71 C 409.52 353.59, 409.96 352.21, 410.74 350.10 C 411.52 347.99, 412.16 346.85, 413.02 345.16 C 413.88 343.47, 414.40 342.65, 415.03 341.64 C 415.65 340.62, 415.95 340.18, 416.16 340.10 C 416.38 340.03, 416.43 340.19, 416.11 341.24 C 415.79 342.29, 415.48 343.18, 414.56 345.34 C 413.64 347.49, 413.03 349.12, 411.50 352.00 C 409.97 354.89, 408.92 356.81, 406.89 359.76 C 404.86 362.72, 403.58 364.43, 401.36 366.77 C 399.14 369.10, 397.88 370.19, 395.78 371.44 C 393.68 372.70, 392.69 373.18, 390.85 373.04 C 389.02 372.90, 388.19 372.48, 386.60 370.76 C 385.02 369.04, 384.20 367.72, 382.93 364.45 C 381.67 361.18, 381.08 358.94, 380.27 354.42 C 379.46 349.90, 379.19 347.02, 378.89 341.86 C 378.58 336.71, 378.58 333.64, 378.75 328.65 C 378.93 323.66, 379.22 320.95, 379.75 316.91 C 380.27 312.87, 380.87 310.99, 381.39 308.44 C 381.91 305.89, 382.04 304.94, 382.35 304.17 C 382.66 303.39, 382.76 303.45, 382.93 304.58 C 383.10 305.71, 383.19 306.83, 383.20 309.80 C 383.20 312.77, 383.36 314.95, 382.96 319.42 C 382.56 323.90, 382.19 326.83, 381.20 332.17 C 380.20 337.51, 379.50 340.71, 377.98 346.11 C 376.46 351.52, 375.52 354.47, 373.61 359.21 C 371.70 363.95, 370.54 366.30, 368.42 369.81 C 366.30 373.33, 364.97 374.75, 363.00 376.80 C 361.03 378.85, 360.08 379.50, 358.56 380.07 C 357.03 380.63, 356.36 380.46, 355.37 379.63 C 354.38 378.79, 353.98 377.84, 353.60 375.89 C 353.23 373.94, 353.18 372.41, 353.49 369.87 C 353.81 367.33, 354.23 365.67, 355.18 363.18 C 356.13 360.69, 356.90 359.32, 358.26 357.41 C 359.61 355.50, 360.50 354.70, 361.95 353.65 C 363.41 352.61, 364.21 352.46, 365.52 352.17 C 366.83 351.88, 367.47 352.15, 368.49 352.22 C 369.51 352.28, 369.93 352.46, 370.62 352.51 C 371.32 352.56, 371.62 352.65, 371.97 352.47 C 372.31 352.29, 372.48 352.01, 372.35 351.61" style="stroke: black; fill: black;"/><path d="M 511.27,337.75 C 510.75 338.26, 510.13 339.14, 509.63 340.65 C 509.13 342.17, 508.82 343.27, 508.79 345.33 C 508.77 347.39, 508.80 348.84, 509.49 350.93 C 510.19 353.03, 510.85 354.17, 512.28 355.81 C 513.70 357.45, 514.67 358.22, 516.62 359.14 C 518.57 360.06, 519.77 360.39, 522.05 360.41 C 524.33 360.44, 525.65 360.20, 528.02 359.24 C 530.39 358.29, 531.71 357.48, 533.89 355.64 C 536.07 353.80, 537.17 352.50, 538.91 350.05 C 540.65 347.60, 541.51 346.06, 542.60 343.39 C 543.68 340.73, 544.09 339.16, 544.34 336.72 C 544.59 334.29, 544.47 332.99, 543.86 331.23 C 543.25 329.47, 542.61 328.68, 541.30 327.92 C 539.99 327.16, 538.96 327.06, 537.30 327.44 C 535.64 327.82, 534.53 328.41, 532.99 329.82 C 531.45 331.23, 530.60 332.35, 529.60 334.48 C 528.60 336.61, 528.16 338.05, 527.98 340.48 C 527.79 342.91, 527.89 344.38, 528.69 346.65 C 529.48 348.91, 530.21 350.17, 531.95 351.79 C 533.69 353.42, 534.93 354.15, 537.38 354.77 C 539.83 355.40, 541.40 355.46, 544.20 354.93 C 547.00 354.40, 548.62 353.73, 551.39 352.13 C 554.16 350.53, 555.62 349.33, 558.05 346.96 C 560.47 344.59, 561.69 343.04, 563.51 340.28 C 565.33 337.51, 566.21 335.87, 567.15 333.13 C 568.08 330.38, 568.32 328.83, 568.19 326.56 C 568.07 324.30, 567.66 323.14, 566.52 321.79 C 565.37 320.45, 564.36 319.95, 562.46 319.82 C 560.57 319.69, 559.22 319.99, 557.03 321.15 C 554.85 322.30, 553.50 323.35, 551.53 325.58 C 549.56 327.81, 548.54 329.42, 547.18 332.31 C 545.82 335.20, 545.16 337.00, 544.71 340.04 C 544.26 343.08, 544.26 344.86, 544.94 347.53 C 545.62 350.19, 546.33 351.58, 548.11 353.36 C 549.89 355.14, 551.21 355.87, 553.84 356.42 C 556.47 356.98, 558.19 356.86, 561.26 356.12 C 564.33 355.38, 566.08 354.55, 569.17 352.74 C 572.26 350.94, 573.93 349.63, 576.72 347.09 C 579.51 344.54, 580.93 342.87, 583.14 340.02 C 585.35 337.17, 586.43 335.55, 587.76 332.84 C 589.08 330.13, 589.52 328.64, 589.77 326.49 C 590.02 324.33, 589.82 323.28, 589.01 322.06 C 588.21 320.85, 587.35 320.42, 585.73 320.40 C 584.11 320.37, 582.91 320.74, 580.93 321.94 C 578.95 323.15, 577.71 324.19, 575.84 326.43 C 573.98 328.66, 573.00 330.26, 571.60 333.12 C 570.20 335.98, 569.47 337.73, 568.85 340.75 C 568.23 343.76, 568.08 345.53, 568.51 348.21 C 568.93 350.89, 569.47 352.29, 570.97 354.16 C 572.46 356.03, 573.60 356.84, 575.97 357.56 C 578.34 358.28, 579.93 358.38, 582.82 357.77 C 585.71 357.17, 587.39 356.34, 590.42 354.55 C 593.44 352.75, 595.09 351.41, 597.93 348.78 C 600.77 346.15, 602.25 344.44, 604.60 341.40 C 606.94 338.37, 608.11 336.58, 609.68 333.62 C 611.24 330.66, 611.91 329.07, 612.44 326.62 C 612.97 324.17, 612.90 322.96, 612.33 321.38 C 611.77 319.80, 611.06 319.18, 609.62 318.73 C 608.17 318.29, 607.01 318.40, 605.12 319.16 C 603.23 319.91, 601.99 320.72, 600.17 322.52 C 598.35 324.31, 597.33 325.64, 596.02 328.13 C 594.72 330.62, 594.08 332.23, 593.65 334.95 C 593.21 337.67, 593.19 339.29, 593.83 341.74 C 594.46 344.19, 595.15 345.50, 596.84 347.21 C 598.54 348.92, 599.78 349.66, 602.31 350.28 C 604.84 350.91, 606.51 350.94, 609.49 350.33 C 612.47 349.72, 614.20 348.94, 617.21 347.25 C 620.21 345.56, 621.83 344.30, 624.51 341.88 C 627.20 339.46, 628.57 337.89, 630.62 335.14 C 632.67 332.39, 633.68 330.78, 634.75 328.13 C 635.82 325.49, 636.07 324.02, 635.96 321.91 C 635.85 319.80, 635.41 318.77, 634.19 317.61 C 632.98 316.44, 631.90 316.07, 629.89 316.09 C 627.88 316.11, 626.45 316.50, 624.14 317.70 C 621.82 318.90, 620.42 319.96, 618.30 322.10 C 616.18 324.25, 615.05 325.73, 613.54 328.43 C 612.04 331.14, 611.30 332.80, 610.77 335.63 C 610.23 338.46, 610.22 340.10, 610.87 342.58 C 611.53 345.07, 612.25 346.36, 614.06 348.07 C 615.87 349.78, 617.22 350.51, 619.91 351.13 C 622.61 351.75, 624.36 351.74, 627.54 351.17 C 630.73 350.60, 632.57 349.88, 635.83 348.29 C 639.09 346.70, 640.87 345.50, 643.84 343.22 C 646.82 340.94, 648.36 339.48, 650.71 336.88 C 653.07 334.28, 654.24 332.77, 655.63 330.22 C 657.02 327.67, 657.46 326.23, 657.67 324.11 C 657.87 321.99, 657.61 320.94, 656.66 319.61 C 655.72 318.29, 654.78 317.78, 652.94 317.47 C 651.11 317.16, 649.76 317.32, 647.49 318.08 C 645.22 318.84, 643.80 319.62, 641.59 321.27 C 639.39 322.92, 638.15 324.10, 636.46 326.33 C 634.77 328.55, 633.94 329.96, 633.14 332.41 C 632.35 334.86, 632.15 336.30, 632.50 338.57 C 632.84 340.84, 633.35 342.07, 634.85 343.77 C 636.34 345.46, 637.50 346.25, 639.95 347.04 C 642.40 347.82, 644.04 347.96, 647.08 347.70 C 650.12 347.44, 651.93 346.89, 655.14 345.74 C 658.34 344.59, 660.13 343.68, 663.13 341.96 C 666.13 340.24, 667.72 339.14, 670.15 337.14 C 672.58 335.14, 673.77 333.96, 675.29 331.97 C 676.81 329.98, 677.35 328.88, 677.74 327.20 C 678.13 325.52, 677.97 324.66, 677.22 323.57 C 676.47 322.47, 675.63 322.02, 673.97 321.75 C 672.32 321.47, 671.08 321.57, 668.96 322.19 C 666.84 322.80, 665.50 323.45, 663.38 324.82 C 661.26 326.20, 660.07 327.18, 658.37 329.07 C 656.66 330.95, 655.78 332.12, 654.86 334.24 C 653.94 336.36, 653.61 337.62, 653.76 339.67 C 653.91 341.72, 654.31 342.86, 655.60 344.49 C 656.88 346.12, 657.93 346.90, 660.19 347.83 C 662.44 348.76, 663.99 349.07, 666.88 349.13 C 669.78 349.19, 671.56 348.87, 674.65 348.13 C 677.75 347.39, 679.48 346.73, 682.37 345.44 C 685.26 344.16, 686.79 343.34, 689.12 341.70 C 691.45 340.05, 692.55 339.03, 694.02 337.21 C 695.48 335.39, 696.04 334.35, 696.44 332.58 C 696.84 330.81, 696.73 329.84, 696.02 328.37 C 695.31 326.90, 694.54 326.14, 692.87 325.24 C 691.20 324.33, 689.91 324.02, 687.67 323.87 C 685.43 323.71, 683.99 323.91, 681.67 324.48 C 679.35 325.04, 678.01 325.59, 676.06 326.71 C 674.10 327.83, 673.08 328.62, 671.90 330.08 C 670.72 331.54, 670.27 332.47, 670.16 334.01 C 670.04 335.55, 670.29 336.43, 671.31 337.78 C 672.33 339.12, 673.22 339.83, 675.24 340.74 C 677.26 341.65, 678.66 342.02, 681.41 342.32 C 684.16 342.63, 685.88 342.54, 688.99 342.25 C 692.10 341.96, 693.87 341.62, 696.97 340.87 C 700.06 340.11, 701.72 339.59, 704.46 338.47 C 707.20 337.35, 708.58 336.64, 710.67 335.26 C 712.76 333.88, 713.71 333.08, 714.92 331.56 C 716.12 330.04, 716.53 329.17, 716.70 327.67 C 716.88 326.17, 716.65 325.33, 715.79 324.07 C 714.94 322.81, 714.12 322.15, 712.43 321.38 C 710.74 320.61, 709.51 320.32, 707.34 320.21 C 705.16 320.09, 703.80 320.25, 701.54 320.80 C 699.29 321.35, 698.01 321.84, 696.08 322.95 C 694.15 324.05, 693.14 324.80, 691.90 326.32 C 690.65 327.84, 690.14 328.79, 689.86 330.55 C 689.58 332.30, 689.69 333.34, 690.48 335.09 C 691.27 336.84, 692.02 337.80, 693.80 339.31 C 695.59 340.82, 696.84 341.58, 699.39 342.63 C 701.95 343.68, 703.58 344.08, 706.57 344.54 C 709.57 345.00, 711.30 345.06, 714.37 344.93 C 717.43 344.79, 719.10 344.58, 721.90 343.87 C 724.69 343.17, 726.12 342.61, 728.34 341.40 C 730.56 340.19, 731.60 339.42, 733.00 337.81 C 734.40 336.21, 734.92 335.21, 735.34 333.38 C 735.75 331.55, 735.68 330.46, 735.08 328.65 C 734.48 326.85, 733.83 325.84, 732.35 324.36 C 730.88 322.88, 729.75 322.15, 727.70 321.25 C 725.66 320.35, 724.33 320.06, 722.14 319.84 C 719.96 319.63, 718.68 319.73, 716.76 320.17 C 714.84 320.60, 713.81 321.02, 712.55 322.00 C 711.30 322.98, 710.76 323.71, 710.49 325.05 C 710.22 326.40, 710.34 327.32, 711.21 328.72 C 712.07 330.13, 712.88 330.94, 714.81 332.09 C 716.73 333.24, 718.10 333.82, 720.84 334.48 C 723.57 335.13, 725.31 335.29, 728.48 335.38 C 731.66 335.47, 733.48 335.35, 736.70 334.94 C 739.92 334.53, 741.66 334.19, 744.57 333.34 C 747.48 332.49, 748.98 331.90, 751.25 330.67 C 753.52 329.44, 754.56 328.68, 755.92 327.19 C 757.29 325.70, 757.76 324.80, 758.07 323.23 C 758.37 321.65, 758.22 320.71, 757.45 319.30 C 756.68 317.88, 755.87 317.11, 754.21 316.15 C 752.55 315.19, 751.29 314.78, 749.13 314.50 C 746.96 314.23, 745.59 314.29, 743.38 314.76 C 741.17 315.22, 739.89 315.71, 738.07 316.84 C 736.25 317.97, 735.32 318.79, 734.28 320.41 C 733.24 322.03, 732.87 323.06, 732.87 324.94 C 732.86 326.82, 733.16 327.97, 734.28 329.82 C 735.39 331.66, 736.32 332.68, 738.43 334.18 C 740.54 335.69, 742.00 336.40, 744.83 337.34 C 747.66 338.28, 749.41 338.59, 752.59 338.89 C 755.77 339.18, 757.57 339.15, 760.74 338.82 C 763.91 338.49, 765.62 338.16, 768.43 337.23 C 771.25 336.31, 772.67 335.63, 774.79 334.19 C 776.91 332.74, 777.87 331.80, 779.03 329.99 C 780.19 328.19, 780.53 327.07, 780.60 325.17 C 780.66 323.26, 780.34 322.17, 779.36 320.46 C 778.37 318.75, 777.46 317.86, 775.66 316.62 C 773.85 315.38, 772.55 314.86, 770.34 314.26 C 768.13 313.67, 766.77 313.58, 764.60 313.65 C 762.43 313.71, 761.21 313.95, 759.51 314.60 C 757.81 315.25, 756.96 315.81, 756.11 316.89 C 755.26 317.97, 755.01 318.74, 755.25 319.99 C 755.50 321.25, 755.96 322.05, 757.34 323.16 C 758.72 324.27, 759.82 324.85, 762.16 325.55 C 764.50 326.25, 766.07 326.49, 769.06 326.67 C 772.04 326.85, 773.84 326.75, 777.10 326.44 C 780.35 326.12, 782.18 325.82, 785.33 325.09 C 788.49 324.36, 790.19 323.90, 792.88 322.81 C 795.57 321.71, 796.87 321.02, 798.78 319.62 C 800.70 318.23, 801.50 317.41, 802.46 315.81 C 803.41 314.21, 803.65 313.29, 803.57 311.63 C 803.48 309.97, 803.08 309.01, 802.01 307.52 C 800.94 306.02, 800.02 305.24, 798.21 304.16 C 796.40 303.09, 795.14 302.62, 792.95 302.15 C 790.75 301.68, 789.40 301.62, 787.24 301.81 C 785.08 302.01, 783.89 302.32, 782.15 303.14 C 780.42 303.96, 779.55 304.56, 778.57 305.91 C 777.58 307.25, 777.23 308.13, 777.22 309.85 C 777.21 311.57, 777.50 312.61, 778.53 314.49 C 779.56 316.37, 780.44 317.42, 782.37 319.24 C 784.31 321.06, 785.66 321.97, 788.20 323.57 C 790.74 325.18, 792.30 325.94, 795.07 327.27 C 797.83 328.61, 799.36 329.26, 802.04 330.26 C 804.72 331.26, 806.16 331.65, 808.47 332.28 C 810.78 332.91, 811.90 333.18, 813.59 333.41 C 815.28 333.64, 816.00 333.67, 816.93 333.44 C 817.85 333.21, 818.16 332.91, 818.22 332.27 C 818.28 331.63, 818.06 331.08, 817.24 330.23 C 816.43 329.38, 815.67 328.83, 814.15 328.02 C 812.62 327.21, 811.50 326.82, 809.61 326.16 C 807.71 325.50, 806.52 325.18, 804.69 324.73 C 802.86 324.28, 801.85 324.07, 800.45 323.92 C 799.05 323.77, 798.37 323.78, 797.69 323.99 C 797.01 324.19, 796.81 324.47, 797.04 324.93 C 797.28 325.39, 797.65 325.76, 798.85 326.28 C 800.04 326.79, 800.99 327.04, 803.03 327.50 C 805.07 327.96, 806.45 328.13, 809.03 328.59 C 811.62 329.04, 813.18 329.29, 815.97 329.77 C 818.75 330.25, 820.32 330.51, 822.97 330.97 C 825.63 331.43, 827.01 331.67, 829.25 332.07 C 831.49 332.47, 832.56 332.70, 834.16 332.98 C 835.76 333.26, 836.42 333.41, 837.24 333.46 C 838.07 333.50, 838.27 333.42, 838.30 333.20 C 838.33 332.98, 838.11 332.72, 837.40 332.36 C 836.68 332.00, 836.03 331.75, 834.72 331.40 C 833.40 331.04, 832.43 330.91, 830.81 330.57 C 829.19 330.23, 828.16 330.05, 826.60 329.69 C 825.04 329.33, 824.16 329.08, 823.00 328.77 C 821.84 328.45, 821.29 328.34, 820.78 328.11 C 820.27 327.89, 820.17 327.87, 820.45 327.64 C 820.73 327.41, 821.09 327.31, 822.18 326.95 C 823.26 326.59, 824.06 326.34, 825.86 325.84 C 827.65 325.34, 828.83 324.99, 831.14 324.45 C 833.45 323.92, 834.87 323.63, 837.41 323.15 C 839.96 322.66, 841.39 322.45, 843.89 322.04 C 846.38 321.62, 847.70 321.46, 849.90 321.05 C 852.11 320.65, 853.20 320.51, 854.92 320.02 C 856.65 319.53, 857.41 319.32, 858.51 318.61 C 859.61 317.90, 860.02 317.49, 860.42 316.47 C 860.83 315.45, 860.86 314.82, 860.53 313.52 C 860.20 312.21, 859.79 311.42, 858.78 309.93 C 857.76 308.44, 856.96 307.59, 855.44 306.07 C 853.93 304.54, 852.94 303.71, 851.20 302.29 C 849.46 300.86, 848.43 300.15, 846.75 298.94 C 845.08 297.73, 844.17 297.16, 842.84 296.25 C 841.51 295.34, 840.89 294.92, 840.08 294.38 C 839.28 293.84, 838.96 293.70, 838.82 293.57 C 838.67 293.45, 838.74 293.56, 839.37 293.74 C 839.99 293.93, 840.54 294.08, 841.95 294.50 C 843.37 294.92, 844.39 295.12, 846.44 295.83 C 848.49 296.55, 849.81 296.97, 852.22 298.09 C 854.63 299.21, 856.06 299.87, 858.50 301.44 C 860.94 303.01, 862.25 303.94, 864.42 305.94 C 866.58 307.94, 867.66 309.11, 869.32 311.45 C 870.97 313.79, 871.70 315.09, 872.69 317.63 C 873.69 320.18, 874.02 321.55, 874.31 324.16 C 874.60 326.77, 874.56 328.17, 874.17 330.68 C 873.77 333.19, 873.33 334.50, 872.33 336.70 C 871.33 338.90, 870.57 339.98, 869.18 341.68 C 867.79 343.38, 866.87 344.14, 865.37 345.21 C 863.86 346.28, 862.96 346.62, 861.65 347.02 C 860.33 347.41, 859.64 347.37, 858.77 347.18 C 857.90 346.99, 857.56 346.67, 857.30 346.06 C 857.04 345.45, 857.03 345.04, 857.47 344.14 C 857.91 343.24, 858.28 342.65, 859.48 341.54 C 860.68 340.43, 861.53 339.76, 863.47 338.58 C 865.41 337.40, 866.69 336.79, 869.18 335.65 C 871.68 334.51, 873.14 333.87, 875.94 332.87 C 878.74 331.86, 880.34 331.41, 883.18 330.62 C 886.02 329.82, 887.56 329.53, 890.13 328.88 C 892.71 328.23, 894.01 327.94, 896.08 327.36 C 898.14 326.78, 899.11 326.56, 900.47 325.97 C 901.84 325.38, 902.37 325.10, 902.92 324.43 C 903.48 323.76, 903.53 323.29, 903.24 322.61 C 902.96 321.93, 902.52 321.43, 901.49 321.03 C 900.47 320.62, 899.64 320.42, 898.10 320.57 C 896.56 320.73, 895.55 320.95, 893.81 321.81 C 892.08 322.66, 891.05 323.28, 889.42 324.85 C 887.79 326.43, 886.90 327.51, 885.68 329.67 C 884.46 331.84, 883.88 333.26, 883.32 335.68 C 882.77 338.11, 882.65 339.58, 882.91 341.79 C 883.17 344.00, 883.57 345.22, 884.63 346.74 C 885.68 348.26, 886.53 348.91, 888.18 349.40 C 889.83 349.88, 890.94 349.84, 892.87 349.17 C 894.81 348.50, 895.95 347.75, 897.85 346.03 C 899.75 344.31, 900.78 342.99, 902.37 340.57 C 903.95 338.16, 904.76 336.41, 905.77 333.96 C 906.79 331.51, 907.14 330.00, 907.44 328.32 C 907.74 326.65, 907.53 325.90, 907.28 325.59 C 907.03 325.27, 906.56 325.57, 906.19 326.74 C 905.83 327.90, 905.44 329.21, 905.45 331.41 C 905.45 333.60, 905.56 335.32, 906.21 337.72 C 906.86 340.13, 907.44 341.58, 908.72 343.43 C 910.00 345.28, 910.81 346.21, 912.60 346.99 C 914.38 347.77, 915.52 347.98, 917.66 347.34 C 919.81 346.70, 921.09 346.02, 923.32 343.81 C 925.56 341.60, 926.67 339.94, 928.84 336.30 C 931.01 332.65, 932.18 330.33, 934.18 325.58 C 936.18 320.83, 937.17 317.94, 938.84 312.56 C 940.51 307.18, 941.29 304.05, 942.53 298.67 C 943.78 293.30, 944.26 290.38, 945.05 285.67 C 945.84 280.95, 946.16 278.63, 946.46 275.11 C 946.77 271.59, 946.83 270.05, 946.56 268.06 C 946.29 266.07, 945.86 265.43, 945.13 265.17 C 944.41 264.91, 943.73 265.21, 942.94 266.75 C 942.14 268.29, 941.68 269.63, 941.14 272.87 C 940.59 276.12, 940.53 278.38, 940.21 282.96 C 939.89 287.53, 939.74 290.39, 939.53 295.74 C 939.32 301.08, 939.23 304.21, 939.15 309.67 C 939.08 315.13, 939.07 318.14, 939.16 323.03 C 939.24 327.92, 939.28 330.39, 939.59 334.13 C 939.90 337.87, 940.00 339.53, 940.69 341.74 C 941.37 343.94, 941.91 344.68, 943.00 345.16 C 944.09 345.63, 944.81 345.36, 946.13 344.13 C 947.45 342.89, 948.25 341.63, 949.59 338.98 C 950.93 336.33, 951.52 334.29, 952.85 330.88 C 954.19 327.47, 954.95 325.28, 956.26 321.93 C 957.58 318.57, 958.41 316.76, 959.44 314.11 C 960.47 311.46, 960.92 310.26, 961.40 308.69 C 961.89 307.13, 961.97 306.62, 961.88 306.29 C 961.78 305.95, 961.43 306.13, 960.95 307.00 C 960.47 307.86, 960.02 308.73, 959.46 310.59 C 958.89 312.46, 958.57 313.84, 958.13 316.33 C 957.69 318.81, 957.46 320.43, 957.26 323.02 C 957.05 325.62, 956.92 327.09, 957.12 329.32 C 957.32 331.55, 957.50 332.64, 958.26 334.18 C 959.01 335.71, 959.57 336.34, 960.90 336.99 C 962.23 337.64, 963.14 337.70, 964.89 337.44 C 966.65 337.17, 967.75 336.67, 969.67 335.68 C 971.59 334.68, 972.71 333.82, 974.48 332.47 C 976.25 331.12, 977.24 330.09, 978.50 328.93 C 979.77 327.77, 980.23 327.05, 980.82 326.68 C 981.41 326.30, 981.38 326.36, 981.46 327.06 C 981.54 327.75, 981.31 328.55, 981.21 330.17 C 981.11 331.79, 980.89 333.11, 980.96 335.17 C 981.03 337.24, 981.11 338.58, 981.57 340.49 C 982.02 342.40, 982.33 343.44, 983.24 344.71 C 984.16 345.98, 984.78 346.51, 986.14 346.85 C 987.49 347.19, 988.37 347.12, 990.01 346.39 C 991.64 345.66, 992.60 344.96, 994.32 343.20 C 996.03 341.43, 996.96 340.11, 998.59 337.58 C 1000.23 335.05, 1001.09 333.34, 1002.50 330.56 C 1003.91 327.79, 1004.75 326.00, 1005.65 323.71 C 1006.55 321.43, 1006.73 320.16, 1006.99 319.15 C 1007.25 318.14, 1007.03 318.00, 1006.95 318.67 C 1006.86 319.35, 1006.53 320.40, 1006.57 322.52 C 1006.60 324.64, 1006.59 326.48, 1007.12 329.27 C 1007.65 332.05, 1008.11 333.87, 1009.22 336.44 C 1010.33 339.00, 1011.08 340.42, 1012.68 342.08 C 1014.27 343.75, 1015.28 344.36, 1017.19 344.77 C 1019.11 345.19, 1020.23 345.07, 1022.26 344.18 C 1024.29 343.29, 1025.50 342.47, 1027.34 340.32 C 1029.18 338.16, 1030.16 336.31, 1031.47 333.41 C 1032.79 330.52, 1033.36 328.53, 1033.92 325.84 C 1034.47 323.14, 1034.39 321.15, 1034.26 319.94 C 1034.14 318.73, 1033.83 318.71, 1033.30 319.77 C 1032.77 320.82, 1032.46 322.71, 1031.61 325.21 C 1030.76 327.72, 1030.31 329.61, 1029.05 332.29 C 1027.79 334.98, 1026.83 336.64, 1025.29 338.65 C 1023.74 340.65, 1022.88 341.45, 1021.34 342.32 C 1019.80 343.20, 1018.99 343.35, 1017.59 343.02 C 1016.19 342.69, 1015.47 342.19, 1014.32 340.67 C 1013.17 339.15, 1012.62 337.85, 1011.84 335.44 C 1011.05 333.03, 1010.92 331.29, 1010.40 328.63 C 1009.88 325.98, 1009.75 324.24, 1009.24 322.17 C 1008.73 320.11, 1008.52 319.05, 1007.84 318.30 C 1007.17 317.56, 1006.78 317.58, 1005.87 318.44 C 1004.95 319.31, 1004.40 320.44, 1003.26 322.62 C 1002.11 324.80, 1001.56 326.67, 1000.16 329.36 C 998.76 332.05, 997.84 333.67, 996.27 336.07 C 994.70 338.47, 993.77 339.66, 992.31 341.35 C 990.85 343.03, 990.14 343.70, 988.98 344.48 C 987.81 345.26, 987.30 345.41, 986.50 345.26 C 985.69 345.10, 985.40 344.75, 984.95 343.70 C 984.49 342.66, 984.39 341.77, 984.22 340.04 C 984.06 338.31, 984.19 337.07, 984.12 335.07 C 984.06 333.06, 984.17 331.75, 983.90 330.03 C 983.63 328.31, 983.46 327.39, 982.77 326.45 C 982.08 325.50, 981.62 325.24, 980.46 325.33 C 979.30 325.42, 978.52 325.94, 976.97 326.90 C 975.43 327.86, 974.47 328.86, 972.73 330.14 C 971.00 331.41, 969.97 332.24, 968.31 333.26 C 966.64 334.29, 965.75 334.83, 964.40 335.28 C 963.06 335.72, 962.47 335.85, 961.59 335.49 C 960.71 335.12, 960.42 334.70, 960.01 333.45 C 959.60 332.19, 959.53 331.24, 959.54 329.22 C 959.55 327.19, 959.72 325.79, 960.07 323.33 C 960.42 320.87, 960.83 319.33, 961.28 316.90 C 961.74 314.47, 962.10 313.13, 962.34 311.20 C 962.57 309.27, 962.62 308.30, 962.46 307.25 C 962.30 306.21, 962.09 305.83, 961.54 305.97 C 961.00 306.11, 960.61 306.50, 959.74 307.94 C 958.87 309.39, 958.31 310.57, 957.20 313.21 C 956.10 315.85, 955.54 317.77, 954.22 321.13 C 952.91 324.48, 952.06 326.64, 950.64 329.97 C 949.21 333.31, 948.26 335.17, 947.09 337.78 C 945.92 340.39, 945.52 341.71, 944.78 343.03 C 944.04 344.36, 943.88 344.74, 943.40 344.39 C 942.92 344.04, 942.80 343.39, 942.38 341.30 C 941.95 339.22, 941.64 337.64, 941.28 333.98 C 940.93 330.32, 940.74 327.85, 940.59 323.00 C 940.44 318.14, 940.44 315.13, 940.53 309.69 C 940.62 304.25, 940.72 301.12, 941.03 295.81 C 941.33 290.50, 941.56 287.63, 942.07 283.13 C 942.58 278.62, 943.09 276.44, 943.59 273.27 C 944.09 270.11, 944.32 268.85, 944.58 267.32 C 944.85 265.78, 944.83 265.42, 944.90 265.59 C 944.97 265.75, 944.97 266.28, 944.93 268.16 C 944.89 270.03, 944.97 271.51, 944.71 274.97 C 944.45 278.42, 944.33 280.76, 943.64 285.45 C 942.94 290.13, 942.46 293.04, 941.25 298.38 C 940.03 303.72, 939.24 306.83, 937.55 312.15 C 935.85 317.47, 934.83 320.34, 932.78 324.97 C 930.72 329.60, 929.48 331.88, 927.26 335.32 C 925.04 338.75, 923.73 340.13, 921.68 342.15 C 919.64 344.18, 918.69 344.81, 917.03 345.44 C 915.37 346.07, 914.64 345.96, 913.39 345.31 C 912.14 344.66, 911.61 343.86, 910.80 342.19 C 909.98 340.53, 909.74 339.18, 909.30 336.98 C 908.86 334.79, 908.86 333.24, 908.59 331.20 C 908.31 329.15, 908.25 327.92, 907.92 326.76 C 907.59 325.60, 907.42 325.23, 906.93 325.41 C 906.43 325.59, 906.17 326.18, 905.43 327.66 C 904.69 329.14, 904.31 330.55, 903.21 332.82 C 902.12 335.09, 901.40 336.76, 899.96 339.02 C 898.52 341.28, 897.60 342.49, 896.01 344.11 C 894.42 345.72, 893.50 346.40, 892.04 347.10 C 890.57 347.80, 889.81 347.91, 888.67 347.62 C 887.52 347.34, 886.99 346.88, 886.31 345.67 C 885.64 344.46, 885.37 343.46, 885.28 341.58 C 885.18 339.71, 885.29 338.41, 885.84 336.29 C 886.38 334.17, 886.90 332.88, 887.99 330.98 C 889.07 329.08, 889.86 328.11, 891.26 326.77 C 892.67 325.43, 893.56 324.95, 895.00 324.27 C 896.45 323.59, 897.27 323.58, 898.47 323.37 C 899.68 323.16, 900.26 323.25, 901.04 323.22 C 901.83 323.18, 902.19 323.15, 902.40 323.20 C 902.62 323.24, 902.64 323.25, 902.13 323.43 C 901.61 323.61, 901.15 323.75, 899.83 324.09 C 898.50 324.44, 897.56 324.67, 895.51 325.15 C 893.45 325.64, 892.14 325.89, 889.55 326.52 C 886.95 327.15, 885.42 327.50, 882.53 328.30 C 879.65 329.11, 878.03 329.57, 875.14 330.54 C 872.24 331.51, 870.69 332.01, 868.07 333.15 C 865.45 334.29, 864.10 334.91, 862.02 336.23 C 859.93 337.54, 858.94 338.29, 857.64 339.73 C 856.34 341.18, 855.87 342.04, 855.50 343.45 C 855.13 344.86, 855.23 345.69, 855.78 346.78 C 856.34 347.88, 856.98 348.46, 858.25 348.91 C 859.53 349.36, 860.48 349.42, 862.16 349.05 C 863.84 348.68, 864.89 348.26, 866.65 347.08 C 868.42 345.91, 869.43 345.06, 870.99 343.18 C 872.56 341.30, 873.39 340.11, 874.49 337.68 C 875.59 335.25, 876.06 333.80, 876.49 331.05 C 876.92 328.29, 876.96 326.74, 876.63 323.89 C 876.30 321.04, 875.93 319.54, 874.84 316.79 C 873.75 314.03, 872.95 312.64, 871.18 310.13 C 869.41 307.62, 868.26 306.40, 866.01 304.24 C 863.75 302.09, 862.39 301.11, 859.88 299.37 C 857.37 297.63, 855.95 296.83, 853.46 295.56 C 850.96 294.29, 849.61 293.76, 847.41 293.01 C 845.22 292.26, 844.12 292.00, 842.48 291.82 C 840.83 291.64, 840.09 291.75, 839.18 292.11 C 838.26 292.48, 837.98 292.92, 837.91 293.64 C 837.83 294.37, 838.08 294.85, 838.79 295.75 C 839.50 296.64, 840.15 297.08, 841.44 298.13 C 842.73 299.17, 843.62 299.73, 845.22 300.98 C 846.82 302.22, 847.81 302.95, 849.44 304.37 C 851.08 305.79, 851.98 306.64, 853.41 308.08 C 854.84 309.52, 855.56 310.34, 856.59 311.57 C 857.63 312.81, 858.09 313.37, 858.58 314.24 C 859.06 315.12, 859.20 315.39, 859.02 315.95 C 858.84 316.51, 858.58 316.65, 857.66 317.04 C 856.74 317.42, 856.03 317.56, 854.40 317.89 C 852.77 318.21, 851.69 318.36, 849.51 318.68 C 847.33 319.00, 846.01 319.15, 843.50 319.51 C 840.98 319.86, 839.54 320.04, 836.94 320.46 C 834.34 320.89, 832.90 321.11, 830.51 321.63 C 828.12 322.14, 826.87 322.40, 824.99 323.04 C 823.10 323.69, 822.22 324.04, 821.08 324.85 C 819.93 325.65, 819.54 326.18, 819.27 327.06 C 819.01 327.94, 819.16 328.45, 819.74 329.24 C 820.31 330.02, 820.91 330.35, 822.13 330.98 C 823.35 331.60, 824.26 331.84, 825.85 332.36 C 827.45 332.89, 828.45 333.18, 830.11 333.60 C 831.77 334.01, 832.73 334.30, 834.16 334.44 C 835.59 334.58, 836.36 334.54, 837.24 334.30 C 838.12 334.07, 838.47 333.73, 838.57 333.28 C 838.66 332.82, 838.50 332.50, 837.71 332.02 C 836.93 331.54, 836.25 331.33, 834.65 330.87 C 833.05 330.41, 831.95 330.21, 829.71 329.73 C 827.47 329.24, 826.09 328.98, 823.44 328.45 C 820.79 327.92, 819.23 327.65, 816.46 327.09 C 813.69 326.54, 812.16 326.21, 809.59 325.68 C 807.03 325.14, 805.70 324.77, 803.65 324.42 C 801.61 324.06, 800.66 323.91, 799.37 323.88 C 798.09 323.85, 797.62 323.98, 797.24 324.26 C 796.86 324.54, 796.94 324.86, 797.48 325.27 C 798.02 325.67, 798.66 325.86, 799.95 326.28 C 801.25 326.70, 802.23 326.82, 803.95 327.37 C 805.67 327.91, 806.78 328.32, 808.55 329.01 C 810.33 329.71, 811.33 330.22, 812.82 330.83 C 814.31 331.45, 815.07 331.77, 816.02 332.08 C 816.97 332.39, 817.39 332.40, 817.57 332.39 C 817.75 332.38, 817.63 332.26, 816.91 332.05 C 816.20 331.84, 815.56 331.74, 814.00 331.33 C 812.44 330.92, 811.34 330.69, 809.13 330.01 C 806.91 329.34, 805.51 328.93, 802.92 327.94 C 800.32 326.96, 798.80 326.40, 796.14 325.09 C 793.48 323.77, 792.00 322.94, 789.62 321.37 C 787.23 319.81, 786.01 318.87, 784.21 317.25 C 782.40 315.62, 781.59 314.74, 780.59 313.25 C 779.59 311.75, 779.29 311.02, 779.20 309.79 C 779.10 308.56, 779.34 308.02, 780.11 307.11 C 780.88 306.19, 781.59 305.79, 783.05 305.23 C 784.51 304.68, 785.56 304.43, 787.43 304.33 C 789.29 304.23, 790.48 304.32, 792.39 304.74 C 794.30 305.15, 795.38 305.57, 796.95 306.40 C 798.53 307.23, 799.32 307.81, 800.28 308.89 C 801.24 309.96, 801.63 310.58, 801.75 311.77 C 801.87 312.95, 801.71 313.58, 800.87 314.79 C 800.03 316.01, 799.32 316.68, 797.54 317.83 C 795.77 318.99, 794.53 319.57, 791.99 320.58 C 789.45 321.59, 787.84 322.17, 784.82 322.87 C 781.80 323.56, 780.01 323.85, 776.90 324.07 C 773.79 324.29, 772.05 324.19, 769.25 323.95 C 766.45 323.71, 765.03 323.40, 762.90 322.87 C 760.77 322.33, 759.84 321.93, 758.62 321.27 C 757.39 320.62, 757.00 320.24, 756.76 319.60 C 756.51 318.97, 756.69 318.65, 757.38 318.09 C 758.07 317.52, 758.77 317.17, 760.23 316.79 C 761.68 316.41, 762.75 316.18, 764.64 316.18 C 766.53 316.18, 767.74 316.27, 769.68 316.78 C 771.61 317.28, 772.73 317.73, 774.30 318.70 C 775.87 319.66, 776.66 320.31, 777.53 321.59 C 778.40 322.88, 778.69 323.66, 778.65 325.11 C 778.61 326.56, 778.35 327.41, 777.33 328.85 C 776.31 330.29, 775.48 331.08, 773.55 332.31 C 771.62 333.53, 770.31 334.13, 767.70 334.98 C 765.09 335.82, 763.47 336.23, 760.50 336.54 C 757.53 336.85, 755.80 336.86, 752.83 336.53 C 749.86 336.19, 748.25 335.76, 745.66 334.87 C 743.07 333.98, 741.78 333.33, 739.89 332.08 C 737.99 330.82, 737.19 330.01, 736.20 328.58 C 735.20 327.15, 734.93 326.32, 734.90 324.92 C 734.87 323.53, 735.17 322.81, 736.05 321.61 C 736.93 320.41, 737.73 319.79, 739.30 318.93 C 740.87 318.07, 741.99 317.67, 743.89 317.32 C 745.80 316.96, 746.97 316.95, 748.81 317.15 C 750.65 317.35, 751.69 317.67, 753.10 318.30 C 754.50 318.92, 755.18 319.38, 755.83 320.29 C 756.48 321.20, 756.64 321.76, 756.37 322.86 C 756.10 323.96, 755.72 324.61, 754.48 325.77 C 753.24 326.92, 752.29 327.57, 750.18 328.63 C 748.07 329.70, 746.66 330.28, 743.91 331.08 C 741.16 331.88, 739.48 332.28, 736.42 332.65 C 733.36 333.01, 731.58 333.07, 728.59 332.90 C 725.61 332.72, 724.00 332.38, 721.50 331.76 C 718.99 331.14, 717.78 330.65, 716.06 329.80 C 714.33 328.96, 713.66 328.41, 712.87 327.52 C 712.08 326.64, 711.95 326.16, 712.11 325.38 C 712.27 324.61, 712.67 324.24, 713.69 323.67 C 714.71 323.10, 715.58 322.78, 717.22 322.52 C 718.85 322.26, 719.98 322.16, 721.87 322.37 C 723.77 322.59, 724.92 322.86, 726.68 323.61 C 728.45 324.35, 729.40 324.95, 730.68 326.10 C 731.96 327.25, 732.54 328.00, 733.08 329.37 C 733.63 330.74, 733.74 331.53, 733.42 332.94 C 733.09 334.35, 732.69 335.12, 731.46 336.41 C 730.23 337.69, 729.30 338.36, 727.27 339.38 C 725.24 340.39, 723.91 340.87, 721.31 341.50 C 718.71 342.13, 717.14 342.41, 714.27 342.51 C 711.40 342.62, 709.75 342.50, 706.98 342.03 C 704.20 341.56, 702.72 341.09, 700.39 340.16 C 698.07 339.23, 696.96 338.57, 695.36 337.37 C 693.76 336.17, 693.10 335.45, 692.39 334.15 C 691.68 332.85, 691.57 332.15, 691.80 330.88 C 692.04 329.60, 692.47 328.93, 693.56 327.78 C 694.66 326.64, 695.56 326.03, 697.27 325.15 C 698.99 324.27, 700.16 323.85, 702.16 323.40 C 704.15 322.96, 705.35 322.87, 707.23 322.91 C 709.11 322.95, 710.12 323.17, 711.54 323.63 C 712.96 324.09, 713.62 324.44, 714.32 325.20 C 715.02 325.96, 715.22 326.42, 715.04 327.43 C 714.85 328.44, 714.51 329.07, 713.39 330.24 C 712.27 331.42, 711.40 332.12, 709.44 333.32 C 707.47 334.52, 706.16 335.20, 703.56 336.25 C 700.95 337.30, 699.37 337.88, 696.42 338.58 C 693.46 339.27, 691.73 339.53, 688.79 339.73 C 685.84 339.93, 684.23 339.84, 681.71 339.58 C 679.18 339.31, 677.95 339.03, 676.17 338.42 C 674.38 337.81, 673.64 337.36, 672.79 336.52 C 671.93 335.67, 671.75 335.19, 671.89 334.19 C 672.04 333.20, 672.45 332.59, 673.52 331.54 C 674.60 330.49, 675.51 329.83, 677.27 328.95 C 679.02 328.06, 680.25 327.59, 682.30 327.11 C 684.36 326.62, 685.63 326.48, 687.55 326.51 C 689.48 326.54, 690.54 326.72, 691.92 327.25 C 693.30 327.79, 693.91 328.21, 694.45 329.18 C 695.00 330.15, 695.07 330.79, 694.65 332.11 C 694.23 333.43, 693.74 334.27, 692.35 335.79 C 690.97 337.31, 689.92 338.20, 687.73 339.70 C 685.54 341.20, 684.14 342.08, 681.41 343.29 C 678.69 344.50, 677.00 345.11, 674.11 345.75 C 671.21 346.39, 669.54 346.52, 666.93 346.50 C 664.31 346.47, 662.97 346.28, 661.02 345.62 C 659.07 344.95, 658.23 344.40, 657.19 343.19 C 656.14 341.98, 655.85 341.16, 655.81 339.57 C 655.77 337.97, 656.08 336.98, 656.97 335.24 C 657.87 333.50, 658.69 332.47, 660.28 330.86 C 661.86 329.25, 663.00 328.41, 664.91 327.19 C 666.82 325.98, 668.03 325.46, 669.82 324.78 C 671.61 324.10, 672.58 323.87, 673.84 323.79 C 675.10 323.71, 675.66 323.78, 676.11 324.36 C 676.56 324.94, 676.59 325.45, 676.08 326.69 C 675.56 327.93, 675.01 328.82, 673.54 330.56 C 672.06 332.30, 671.00 333.48, 668.70 335.39 C 666.40 337.29, 664.91 338.44, 662.05 340.08 C 659.19 341.72, 657.43 342.57, 654.39 343.60 C 651.35 344.63, 649.62 344.98, 646.87 345.23 C 644.11 345.47, 642.71 345.40, 640.61 344.83 C 638.51 344.26, 637.58 343.70, 636.38 342.39 C 635.17 341.08, 634.78 340.13, 634.58 338.29 C 634.38 336.45, 634.58 335.26, 635.37 333.19 C 636.16 331.12, 636.95 329.88, 638.53 327.94 C 640.11 326.00, 641.29 324.98, 643.26 323.49 C 645.24 322.01, 646.51 321.33, 648.41 320.52 C 650.31 319.70, 651.36 319.43, 652.76 319.42 C 654.16 319.42, 654.81 319.61, 655.41 320.49 C 656.02 321.37, 656.15 322.11, 655.79 323.84 C 655.43 325.56, 654.94 326.77, 653.61 329.10 C 652.29 331.44, 651.38 333.01, 649.18 335.51 C 646.98 338.02, 645.48 339.46, 642.63 341.63 C 639.78 343.81, 638.02 344.94, 634.92 346.40 C 631.82 347.85, 630.05 348.41, 627.15 348.91 C 624.24 349.41, 622.73 349.37, 620.40 348.90 C 618.06 348.43, 616.96 347.92, 615.47 346.55 C 613.98 345.19, 613.42 344.16, 612.95 342.07 C 612.48 339.98, 612.56 338.59, 613.11 336.11 C 613.66 333.63, 614.29 332.09, 615.71 329.67 C 617.13 327.25, 618.27 325.94, 620.21 324.01 C 622.15 322.08, 623.45 321.19, 625.42 320.02 C 627.39 318.84, 628.51 318.39, 630.05 318.13 C 631.59 317.87, 632.32 317.97, 633.13 318.73 C 633.94 319.48, 634.18 320.21, 634.08 321.91 C 633.98 323.62, 633.65 324.85, 632.62 327.24 C 631.58 329.64, 630.80 331.26, 628.90 333.88 C 627.00 336.49, 625.67 338.04, 623.11 340.33 C 620.56 342.61, 618.96 343.79, 616.14 345.31 C 613.31 346.84, 611.66 347.40, 609.00 347.96 C 606.33 348.52, 604.94 348.56, 602.81 348.11 C 600.68 347.67, 599.69 347.11, 598.33 345.73 C 596.97 344.35, 596.46 343.28, 596.01 341.21 C 595.57 339.15, 595.63 337.76, 596.11 335.40 C 596.60 333.04, 597.22 331.61, 598.43 329.43 C 599.64 327.24, 600.62 326.11, 602.16 324.47 C 603.70 322.83, 604.71 322.10, 606.13 321.25 C 607.56 320.39, 608.33 320.09, 609.28 320.20 C 610.22 320.31, 610.63 320.62, 610.86 321.80 C 611.08 322.98, 611.00 323.94, 610.39 326.11 C 609.79 328.28, 609.29 329.83, 607.82 332.65 C 606.35 335.47, 605.30 337.28, 603.06 340.22 C 600.81 343.15, 599.33 344.83, 596.59 347.32 C 593.84 349.81, 592.18 351.04, 589.32 352.66 C 586.47 354.28, 584.86 354.84, 582.30 355.42 C 579.75 356.00, 578.48 356.07, 576.53 355.57 C 574.58 355.07, 573.70 354.47, 572.54 352.93 C 571.38 351.40, 571.00 350.24, 570.74 347.90 C 570.47 345.57, 570.59 343.99, 571.22 341.26 C 571.84 338.53, 572.48 336.86, 573.85 334.26 C 575.21 331.66, 576.34 330.31, 578.04 328.27 C 579.75 326.23, 580.81 325.28, 582.38 324.05 C 583.95 322.81, 584.78 322.35, 585.88 322.09 C 586.97 321.83, 587.45 321.94, 587.84 322.76 C 588.23 323.57, 588.26 324.34, 587.83 326.16 C 587.41 327.97, 586.99 329.31, 585.73 331.84 C 584.47 334.36, 583.60 336.04, 581.53 338.79 C 579.46 341.54, 578.06 343.18, 575.38 345.61 C 572.70 348.03, 571.05 349.25, 568.12 350.90 C 565.18 352.56, 563.49 353.19, 560.71 353.87 C 557.94 354.55, 556.49 354.68, 554.25 354.29 C 552.02 353.90, 550.98 353.38, 549.55 351.92 C 548.12 350.47, 547.60 349.31, 547.11 347.01 C 546.61 344.71, 546.62 343.14, 547.07 340.41 C 547.53 337.69, 548.10 335.99, 549.40 333.39 C 550.70 330.78, 551.80 329.40, 553.58 327.38 C 555.36 325.37, 556.51 324.44, 558.28 323.31 C 560.05 322.17, 561.05 321.80, 562.44 321.71 C 563.83 321.62, 564.50 321.86, 565.24 322.84 C 565.98 323.81, 566.21 324.69, 566.15 326.59 C 566.08 328.49, 565.80 329.84, 564.90 332.34 C 564.00 334.83, 563.33 336.46, 561.65 339.06 C 559.97 341.67, 558.79 343.16, 556.50 345.36 C 554.22 347.57, 552.78 348.65, 550.22 350.09 C 547.67 351.52, 546.19 352.04, 543.73 352.53 C 541.27 353.02, 539.97 353.03, 537.92 352.56 C 535.87 352.08, 534.88 351.50, 533.49 350.16 C 532.09 348.83, 531.52 347.79, 530.92 345.90 C 530.33 344.01, 530.29 342.76, 530.51 340.70 C 530.72 338.65, 531.17 337.43, 532.02 335.62 C 532.88 333.81, 533.61 332.90, 534.78 331.65 C 535.96 330.41, 536.75 329.86, 537.89 329.39 C 539.03 328.92, 539.67 328.85, 540.49 329.32 C 541.31 329.79, 541.70 330.34, 542.01 331.76 C 542.31 333.18, 542.38 334.29, 542.03 336.42 C 541.68 338.55, 541.29 339.99, 540.25 342.42 C 539.22 344.85, 538.46 346.33, 536.85 348.58 C 535.24 350.83, 534.17 352.00, 532.22 353.68 C 530.26 355.36, 529.11 356.10, 527.07 356.99 C 525.04 357.88, 523.94 358.09, 522.05 358.11 C 520.15 358.13, 519.18 357.86, 517.59 357.09 C 516.01 356.32, 515.22 355.67, 514.11 354.28 C 513.00 352.89, 512.55 351.93, 512.04 350.14 C 511.52 348.35, 511.58 347.12, 511.54 345.32 C 511.50 343.52, 511.71 342.58, 511.86 341.13 C 512.00 339.69, 512.39 338.77, 512.27 338.10 C 512.15 337.42, 511.80 337.24, 511.27 337.75" style="stroke: black; fill: black;"/><path d="M 1019.19,285.80 C 1018.99 285.51, 1018.64 285.31, 1018.51 285.35 C 1018.39 285.38, 1018.33 285.65, 1018.56 285.98 C 1018.80 286.30, 1019.41 286.69, 1019.68 286.96 C 1019.96 287.24, 1019.99 287.37, 1019.96 287.34 C 1019.92 287.31, 1019.66 287.12, 1019.51 286.81 C 1019.36 286.50, 1019.39 286.10, 1019.19 285.80" style="stroke: black; fill: black;"/><path d="M 1058.71,304.26 C 1058.42 303.93, 1058.06 303.77, 1057.19 303.57 C 1056.33 303.38, 1055.71 303.20, 1054.39 303.29 C 1053.06 303.38, 1052.10 303.46, 1050.58 304.03 C 1049.05 304.59, 1048.11 305.03, 1046.74 306.11 C 1045.37 307.20, 1044.57 307.91, 1043.72 309.46 C 1042.86 311.01, 1042.49 312.00, 1042.45 313.87 C 1042.41 315.73, 1042.64 316.82, 1043.52 318.81 C 1044.41 320.79, 1045.21 321.82, 1046.87 323.79 C 1048.53 325.76, 1049.73 326.77, 1051.82 328.66 C 1053.91 330.55, 1055.26 331.51, 1057.31 333.26 C 1059.37 335.01, 1060.54 335.86, 1062.09 337.40 C 1063.64 338.94, 1064.36 339.66, 1065.06 340.96 C 1065.77 342.26, 1065.90 342.81, 1065.62 343.90 C 1065.34 344.99, 1064.85 345.47, 1063.65 346.40 C 1062.46 347.32, 1061.49 347.77, 1059.64 348.52 C 1057.79 349.26, 1056.50 349.64, 1054.42 350.12 C 1052.33 350.59, 1051.03 350.77, 1049.22 350.90 C 1047.40 351.03, 1046.55 350.83, 1045.34 350.77 C 1044.13 350.71, 1043.75 350.70, 1043.18 350.61 C 1042.60 350.52, 1042.66 350.33, 1042.45 350.34 C 1042.24 350.34, 1042.08 350.38, 1042.13 350.65 C 1042.18 350.92, 1042.11 351.25, 1042.69 351.69 C 1043.27 352.12, 1043.69 352.47, 1045.01 352.82 C 1046.33 353.17, 1047.30 353.43, 1049.30 353.44 C 1051.30 353.44, 1052.73 353.34, 1055.02 352.85 C 1057.31 352.37, 1058.71 351.96, 1060.73 350.99 C 1062.76 350.03, 1063.82 349.38, 1065.14 348.04 C 1066.45 346.70, 1066.98 345.87, 1067.32 344.29 C 1067.65 342.71, 1067.51 341.84, 1066.81 340.14 C 1066.11 338.44, 1065.36 337.56, 1063.81 335.79 C 1062.26 334.02, 1061.08 333.11, 1059.05 331.28 C 1057.02 329.45, 1055.70 328.47, 1053.66 326.63 C 1051.63 324.78, 1050.46 323.83, 1048.87 322.05 C 1047.27 320.28, 1046.53 319.40, 1045.70 317.77 C 1044.86 316.14, 1044.67 315.32, 1044.68 313.90 C 1044.69 312.47, 1045.01 311.78, 1045.73 310.65 C 1046.45 309.51, 1047.13 308.99, 1048.29 308.20 C 1049.45 307.42, 1050.23 307.15, 1051.52 306.72 C 1052.81 306.30, 1053.59 306.30, 1054.72 306.10 C 1055.85 305.90, 1056.39 305.91, 1057.17 305.73 C 1057.96 305.56, 1058.35 305.51, 1058.65 305.22 C 1058.96 304.92, 1059.00 304.59, 1058.71 304.26" style="stroke: black; fill: black;"/><path d="M 1141.71,273.88 C 1141.41 274.27, 1141.36 274.55, 1141.05 275.87 C 1140.74 277.19, 1140.47 277.96, 1140.16 280.48 C 1139.86 282.99, 1139.88 284.67, 1139.51 288.45 C 1139.14 292.22, 1138.87 294.60, 1138.31 299.35 C 1137.75 304.09, 1137.35 306.94, 1136.70 312.16 C 1136.04 317.39, 1135.62 320.36, 1135.04 325.47 C 1134.46 330.58, 1134.10 333.30, 1133.80 337.73 C 1133.51 342.16, 1133.27 344.29, 1133.57 347.62 C 1133.88 350.95, 1134.15 352.36, 1135.32 354.37 C 1136.49 356.39, 1137.38 357.02, 1139.42 357.70 C 1141.47 358.38, 1142.82 358.33, 1145.55 357.77 C 1148.28 357.21, 1149.90 356.36, 1153.06 354.92 C 1156.21 353.47, 1158.02 352.35, 1161.33 350.53 C 1164.63 348.71, 1166.42 347.56, 1169.57 345.82 C 1172.72 344.08, 1174.36 343.20, 1177.07 341.82 C 1179.78 340.43, 1181.07 339.84, 1183.13 338.89 C 1185.20 337.94, 1186.05 337.61, 1187.40 337.08 C 1188.76 336.55, 1189.18 336.55, 1189.90 336.23 C 1190.62 335.91, 1190.83 335.88, 1191.01 335.48 C 1191.18 335.07, 1191.17 334.74, 1190.75 334.21 C 1190.34 333.67, 1189.97 333.27, 1188.95 332.82 C 1187.93 332.37, 1187.17 332.12, 1185.63 331.95 C 1184.10 331.77, 1183.11 331.68, 1181.29 331.95 C 1179.46 332.22, 1178.37 332.40, 1176.51 333.30 C 1174.65 334.20, 1173.58 334.85, 1171.98 336.44 C 1170.39 338.02, 1169.55 339.11, 1168.53 341.23 C 1167.51 343.34, 1167.08 344.71, 1166.86 347.02 C 1166.64 349.33, 1166.76 350.72, 1167.43 352.77 C 1168.11 354.82, 1168.77 355.90, 1170.24 357.27 C 1171.71 358.65, 1172.78 359.22, 1174.80 359.65 C 1176.81 360.07, 1178.12 360.01, 1180.33 359.41 C 1182.54 358.81, 1183.81 358.16, 1185.84 356.66 C 1187.88 355.16, 1188.96 354.07, 1190.50 351.91 C 1192.03 349.75, 1192.74 348.33, 1193.53 345.86 C 1194.32 343.39, 1194.50 341.91, 1194.44 339.56 C 1194.38 337.20, 1194.03 335.93, 1193.24 334.08 C 1192.45 332.22, 1191.71 331.36, 1190.48 330.27 C 1189.24 329.19, 1188.31 328.83, 1187.05 328.63 C 1185.79 328.44, 1184.94 328.68, 1184.19 329.28 C 1183.43 329.88, 1183.09 330.63, 1183.27 331.63 C 1183.45 332.63, 1183.86 333.38, 1185.10 334.28 C 1186.34 335.17, 1187.38 335.63, 1189.49 336.10 C 1191.59 336.58, 1193.00 336.69, 1195.62 336.64 C 1198.25 336.59, 1199.82 336.37, 1202.63 335.85 C 1205.44 335.33, 1207.04 334.87, 1209.67 334.03 C 1212.31 333.18, 1213.71 332.59, 1215.81 331.62 C 1217.91 330.65, 1218.93 330.08, 1220.18 329.16 C 1221.42 328.25, 1221.85 327.73, 1222.04 327.05 C 1222.22 326.36, 1221.94 325.94, 1221.12 325.75 C 1220.31 325.55, 1219.44 325.53, 1217.97 326.09 C 1216.50 326.64, 1215.43 327.21, 1213.76 328.52 C 1212.09 329.83, 1211.09 330.82, 1209.62 332.66 C 1208.15 334.50, 1207.34 335.67, 1206.41 337.72 C 1205.48 339.77, 1205.08 341.00, 1204.97 342.90 C 1204.86 344.81, 1205.04 345.86, 1205.85 347.23 C 1206.66 348.60, 1207.42 349.22, 1209.00 349.75 C 1210.59 350.27, 1211.73 350.28, 1213.77 349.83 C 1215.82 349.39, 1217.09 348.82, 1219.22 347.53 C 1221.36 346.24, 1222.56 345.19, 1224.44 343.39 C 1226.31 341.58, 1227.29 340.35, 1228.60 338.49 C 1229.92 336.64, 1230.48 335.47, 1230.99 334.11 C 1231.51 332.74, 1231.38 331.98, 1231.17 331.66 C 1230.97 331.35, 1230.45 331.43, 1229.97 332.53 C 1229.49 333.62, 1229.02 334.64, 1228.77 337.15 C 1228.52 339.66, 1228.60 341.41, 1228.72 345.07 C 1228.84 348.72, 1229.04 350.95, 1229.38 355.43 C 1229.73 359.90, 1230.01 362.49, 1230.43 367.43 C 1230.86 372.37, 1231.19 375.12, 1231.52 380.14 C 1231.85 385.16, 1232.08 387.85, 1232.09 392.51 C 1232.10 397.17, 1232.07 399.57, 1231.57 403.44 C 1231.07 407.30, 1230.62 409.11, 1229.61 411.84 C 1228.60 414.58, 1227.94 415.66, 1226.53 417.11 C 1225.11 418.57, 1224.23 418.93, 1222.51 419.11 C 1220.79 419.29, 1219.73 418.98, 1217.93 418.01 C 1216.12 417.04, 1215.08 416.19, 1213.48 414.26 C 1211.88 412.32, 1210.95 411.05, 1209.92 408.33 C 1208.89 405.61, 1208.41 403.97, 1208.32 400.66 C 1208.23 397.36, 1208.44 395.51, 1209.46 391.82 C 1210.48 388.12, 1211.34 386.09, 1213.42 382.20 C 1215.51 378.32, 1216.93 376.24, 1219.91 372.38 C 1222.88 368.52, 1224.73 366.55, 1228.32 362.91 C 1231.90 359.27, 1233.99 357.45, 1237.84 354.18 C 1241.68 350.90, 1243.82 349.31, 1247.57 346.51 C 1251.32 343.72, 1253.30 342.41, 1256.58 340.20 C 1259.87 337.99, 1261.57 337.10, 1264.00 335.47 C 1266.43 333.85, 1267.48 333.16, 1268.74 332.07 C 1269.99 330.97, 1270.28 330.55, 1270.28 330.00 C 1270.28 329.46, 1269.80 329.23, 1268.74 329.36 C 1267.68 329.48, 1266.66 329.67, 1264.99 330.64 C 1263.31 331.61, 1262.13 332.39, 1260.37 334.21 C 1258.61 336.02, 1257.55 337.29, 1256.18 339.70 C 1254.81 342.11, 1254.08 343.61, 1253.53 346.24 C 1252.97 348.88, 1252.88 350.46, 1253.39 352.87 C 1253.89 355.28, 1254.49 356.57, 1256.05 358.28 C 1257.61 359.99, 1258.85 360.74, 1261.18 361.41 C 1263.52 362.07, 1265.09 362.12, 1267.73 361.61 C 1270.36 361.10, 1271.93 360.44, 1274.35 358.86 C 1276.78 357.28, 1278.10 356.08, 1279.84 353.70 C 1281.58 351.33, 1282.35 349.76, 1283.04 346.98 C 1283.72 344.21, 1283.75 342.54, 1283.28 339.82 C 1282.80 337.10, 1282.11 335.63, 1280.66 333.38 C 1279.21 331.13, 1278.00 330.06, 1276.02 328.58 C 1274.04 327.09, 1272.66 326.53, 1270.78 325.95 C 1268.90 325.36, 1267.74 325.42, 1266.61 325.67 C 1265.48 325.91, 1265.02 326.48, 1265.12 327.19 C 1265.22 327.90, 1265.66 328.52, 1267.12 329.21 C 1268.58 329.90, 1269.83 330.30, 1272.42 330.62 C 1275.00 330.94, 1276.78 330.86, 1280.05 330.79 C 1283.31 330.73, 1285.30 330.57, 1288.74 330.29 C 1292.17 330.02, 1294.11 329.81, 1297.22 329.42 C 1300.33 329.04, 1301.91 328.78, 1304.30 328.36 C 1306.68 327.94, 1307.69 327.73, 1309.14 327.32 C 1310.60 326.92, 1310.96 326.66, 1311.56 326.34 C 1312.17 326.01, 1312.08 325.88, 1312.17 325.69 C 1312.27 325.50, 1312.21 325.46, 1312.04 325.39 C 1311.86 325.32, 1311.94 325.33, 1311.29 325.35 C 1310.65 325.37, 1310.26 325.32, 1308.79 325.47 C 1307.32 325.63, 1306.31 325.77, 1303.94 326.11 C 1301.57 326.44, 1300.01 326.76, 1296.94 327.14 C 1293.87 327.52, 1291.96 327.81, 1288.58 328.02 C 1285.20 328.22, 1283.22 328.26, 1280.05 328.17 C 1276.89 328.08, 1275.20 327.80, 1272.74 327.58 C 1270.27 327.36, 1269.14 327.21, 1267.73 327.07 C 1266.32 326.94, 1265.90 326.89, 1265.68 326.92 C 1265.45 326.95, 1265.75 326.97, 1266.61 327.22 C 1267.47 327.47, 1268.39 327.51, 1269.98 328.17 C 1271.57 328.83, 1272.82 329.22, 1274.56 330.52 C 1276.30 331.82, 1277.40 332.73, 1278.69 334.67 C 1279.98 336.61, 1280.59 337.87, 1281.00 340.22 C 1281.41 342.56, 1281.38 344.00, 1280.74 346.40 C 1280.11 348.80, 1279.40 350.16, 1277.85 352.23 C 1276.29 354.29, 1275.09 355.33, 1272.96 356.73 C 1270.84 358.13, 1269.47 358.71, 1267.23 359.22 C 1264.99 359.72, 1263.68 359.72, 1261.76 359.25 C 1259.83 358.78, 1258.84 358.22, 1257.61 356.86 C 1256.37 355.50, 1255.91 354.46, 1255.58 352.45 C 1255.25 350.44, 1255.36 349.08, 1255.95 346.81 C 1256.54 344.54, 1257.22 343.20, 1258.54 341.11 C 1259.86 339.03, 1260.95 337.99, 1262.57 336.36 C 1264.18 334.74, 1265.26 334.13, 1266.62 333.01 C 1267.98 331.88, 1268.71 331.40, 1269.37 330.75 C 1270.03 330.11, 1270.24 329.79, 1269.92 329.78 C 1269.59 329.77, 1269.18 329.90, 1267.76 330.69 C 1266.35 331.48, 1265.27 332.11, 1262.84 333.75 C 1260.42 335.38, 1258.87 336.53, 1255.64 338.85 C 1252.41 341.17, 1250.43 342.50, 1246.69 345.36 C 1242.95 348.21, 1240.81 349.81, 1236.94 353.13 C 1233.07 356.44, 1230.97 358.26, 1227.33 361.93 C 1223.69 365.60, 1221.81 367.58, 1218.75 371.48 C 1215.69 375.38, 1214.22 377.47, 1212.02 381.44 C 1209.82 385.41, 1208.89 387.47, 1207.75 391.32 C 1206.60 395.17, 1206.30 397.13, 1206.30 400.69 C 1206.30 404.25, 1206.69 406.08, 1207.74 409.12 C 1208.79 412.15, 1209.72 413.69, 1211.56 415.87 C 1213.40 418.04, 1214.71 418.99, 1216.95 420.00 C 1219.19 421.02, 1220.58 421.25, 1222.75 420.93 C 1224.92 420.61, 1226.08 420.09, 1227.81 418.40 C 1229.54 416.72, 1230.33 415.46, 1231.41 412.50 C 1232.49 409.55, 1232.76 407.63, 1233.19 403.63 C 1233.62 399.63, 1233.61 397.22, 1233.56 392.51 C 1233.51 387.79, 1233.28 385.09, 1232.96 380.05 C 1232.64 375.01, 1232.31 372.25, 1231.95 367.31 C 1231.59 362.37, 1231.33 359.77, 1231.15 355.32 C 1230.97 350.87, 1230.97 348.65, 1231.06 345.06 C 1231.16 341.47, 1231.51 339.82, 1231.62 337.36 C 1231.74 334.90, 1231.78 333.95, 1231.63 332.77 C 1231.48 331.58, 1231.35 331.38, 1230.87 331.44 C 1230.39 331.51, 1230.09 332.01, 1229.22 333.10 C 1228.34 334.20, 1227.85 335.26, 1226.51 336.91 C 1225.17 338.57, 1224.27 339.73, 1222.52 341.38 C 1220.77 343.03, 1219.63 343.96, 1217.76 345.17 C 1215.88 346.39, 1214.79 346.91, 1213.14 347.44 C 1211.49 347.98, 1210.65 348.09, 1209.51 347.87 C 1208.37 347.65, 1207.90 347.30, 1207.43 346.36 C 1206.96 345.41, 1206.91 344.64, 1207.16 343.14 C 1207.42 341.64, 1207.79 340.58, 1208.72 338.85 C 1209.64 337.12, 1210.40 336.06, 1211.80 334.49 C 1213.20 332.92, 1214.23 332.19, 1215.72 330.99 C 1217.21 329.79, 1218.12 329.32, 1219.24 328.51 C 1220.36 327.70, 1220.90 327.35, 1221.33 326.95 C 1221.75 326.55, 1221.80 326.41, 1221.36 326.50 C 1220.93 326.59, 1220.45 326.81, 1219.14 327.39 C 1217.84 327.96, 1216.88 328.55, 1214.83 329.38 C 1212.79 330.20, 1211.43 330.77, 1208.90 331.53 C 1206.36 332.29, 1204.82 332.71, 1202.15 333.16 C 1199.49 333.61, 1198.00 333.76, 1195.58 333.79 C 1193.16 333.81, 1191.91 333.61, 1190.05 333.29 C 1188.20 332.96, 1187.37 332.61, 1186.30 332.18 C 1185.23 331.75, 1184.96 331.48, 1184.70 331.15 C 1184.43 330.81, 1184.58 330.64, 1184.97 330.51 C 1185.36 330.39, 1185.81 330.26, 1186.63 330.52 C 1187.45 330.78, 1188.15 330.94, 1189.07 331.82 C 1189.98 332.70, 1190.59 333.36, 1191.19 334.91 C 1191.80 336.47, 1192.09 337.55, 1192.09 339.59 C 1192.08 341.62, 1191.90 342.91, 1191.17 345.08 C 1190.43 347.25, 1189.78 348.51, 1188.41 350.42 C 1187.04 352.32, 1186.07 353.28, 1184.31 354.62 C 1182.56 355.95, 1181.48 356.52, 1179.66 357.10 C 1177.83 357.68, 1176.80 357.78, 1175.21 357.50 C 1173.62 357.23, 1172.82 356.81, 1171.71 355.73 C 1170.59 354.64, 1170.10 353.78, 1169.62 352.09 C 1169.14 350.40, 1169.07 349.24, 1169.31 347.28 C 1169.54 345.33, 1169.91 344.14, 1170.80 342.33 C 1171.69 340.52, 1172.40 339.58, 1173.76 338.24 C 1175.12 336.89, 1176.03 336.33, 1177.60 335.61 C 1179.17 334.89, 1180.08 334.77, 1181.61 334.64 C 1183.15 334.50, 1183.95 334.74, 1185.26 334.93 C 1186.56 335.11, 1187.17 335.41, 1188.13 335.56 C 1189.09 335.70, 1189.55 335.74, 1190.06 335.65 C 1190.57 335.56, 1190.78 335.27, 1190.68 335.11 C 1190.58 334.94, 1190.33 334.78, 1189.55 334.82 C 1188.78 334.86, 1188.26 334.90, 1186.81 335.32 C 1185.35 335.74, 1184.41 336.01, 1182.26 336.92 C 1180.12 337.84, 1178.81 338.46, 1176.08 339.89 C 1173.34 341.32, 1171.74 342.30, 1168.60 344.06 C 1165.45 345.83, 1163.64 346.96, 1160.34 348.71 C 1157.05 350.46, 1155.18 351.48, 1152.12 352.83 C 1149.05 354.19, 1147.46 354.83, 1145.02 355.48 C 1142.57 356.13, 1141.53 356.47, 1139.88 356.09 C 1138.23 355.71, 1137.67 355.30, 1136.77 353.57 C 1135.86 351.84, 1135.65 350.61, 1135.37 347.46 C 1135.08 344.31, 1135.11 342.18, 1135.33 337.82 C 1135.55 333.45, 1135.89 330.72, 1136.45 325.63 C 1137.01 320.53, 1137.44 317.56, 1138.15 312.35 C 1138.85 307.14, 1139.27 304.30, 1139.98 299.57 C 1140.68 294.84, 1141.09 292.48, 1141.67 288.72 C 1142.26 284.96, 1142.63 283.32, 1142.89 280.79 C 1143.15 278.25, 1143.04 277.42, 1142.97 276.05 C 1142.90 274.67, 1142.81 274.36, 1142.56 273.93 C 1142.30 273.49, 1142.01 273.49, 1141.71 273.88" style="stroke: black; fill: black;"/></svg>